<svg width="192" height="3" viewBox="0 0 192 3" fill="none" xmlns="http://www.w3.org/2000/svg">
<path opacity="0.2" d="M189.545 3C188.716 3 188.045 2.32843 188.045 1.5C188.045 0.671573 188.716 0 189.545 0V3ZM179.724 0C180.553 0 181.224 0.671573 181.224 1.5C181.224 2.32843 180.553 3 179.724 3V0ZM174.814 3C173.986 3 173.314 2.32843 173.314 1.5C173.314 0.671573 173.986 0 174.814 0V3ZM164.994 0C165.822 0 166.494 0.671573 166.494 1.5C166.494 2.32843 165.822 3 164.994 3V0ZM160.083 3C159.255 3 158.583 2.32843 158.583 1.5C158.583 0.671573 159.255 0 160.083 0V3ZM150.263 0C151.091 0 151.763 0.671573 151.763 1.5C151.763 2.32843 151.091 3 150.263 3V0ZM145.353 3C144.524 3 143.853 2.32843 143.853 1.5C143.853 0.671573 144.524 0 145.353 0V3ZM135.532 0C136.36 0 137.032 0.671573 137.032 1.5C137.032 2.32843 136.36 3 135.532 3V0ZM130.622 3C129.793 3 129.122 2.32843 129.122 1.5C129.122 0.671573 129.793 0 130.622 0V3ZM120.801 0C121.63 0 122.301 0.671573 122.301 1.5C122.301 2.32843 121.63 3 120.801 3V0ZM115.891 3C115.063 3 114.391 2.32843 114.391 1.5C114.391 0.671573 115.063 0 115.891 0V3ZM106.071 0C106.899 0 107.571 0.671573 107.571 1.5C107.571 2.32843 106.899 3 106.071 3V0ZM101.16 3C100.332 3 99.6603 2.32843 99.6603 1.5C99.6603 0.671573 100.332 0 101.16 0V3ZM91.3398 0C92.1682 0 92.8398 0.671573 92.8398 1.5C92.8398 2.32843 92.1682 3 91.3398 3V0ZM86.4295 3C85.6011 3 84.9295 2.32843 84.9295 1.5C84.9295 0.671573 85.6011 0 86.4295 0V3ZM76.609 0C77.4374 0 78.109 0.671573 78.109 1.5C78.109 2.32843 77.4374 3 76.609 3V0ZM71.6987 3C70.8703 3 70.1987 2.32843 70.1987 1.5C70.1987 0.671573 70.8703 0 71.6987 0V3ZM61.8782 0C62.7066 0 63.3782 0.671573 63.3782 1.5C63.3782 2.32843 62.7066 3 61.8782 3V0ZM56.968 3C56.1395 3 55.468 2.32843 55.468 1.5C55.468 0.671573 56.1395 0 56.968 0V3ZM47.1474 0C47.9759 0 48.6474 0.671573 48.6474 1.5C48.6474 2.32843 47.9759 3 47.1474 3V0ZM42.2372 3C41.4088 3 40.7372 2.32843 40.7372 1.5C40.7372 0.671573 41.4088 0 42.2372 0V3ZM32.4167 0C33.2451 0 33.9167 0.671573 33.9167 1.5C33.9167 2.32843 33.2451 3 32.4167 3V0ZM27.5064 3C26.678 3 26.0064 2.32843 26.0064 1.5C26.0064 0.671573 26.678 0 27.5064 0V3ZM17.6859 0C18.5143 0 19.1859 0.671573 19.1859 1.5C19.1859 2.32843 18.5143 3 17.6859 3V0ZM12.7756 3C11.9472 3 11.2756 2.32843 11.2756 1.5C11.2756 0.671573 11.9472 0 12.7756 0V3ZM2.95512 0C3.78355 0 4.45512 0.671573 4.45512 1.5C4.45512 2.32843 3.78355 3 2.95512 3V0ZM192 3H189.545V0H192V3ZM179.724 3H174.814V0H179.724V3ZM164.994 3H160.083V0H164.994V3ZM150.263 3H145.353V0H150.263V3ZM135.532 3H130.622V0H135.532V3ZM120.801 3H115.891V0H120.801V3ZM106.071 3H101.16V0H106.071V3ZM91.3398 3H86.4295V0H91.3398V3ZM76.609 3H71.6987V0H76.609V3ZM61.8782 3H56.968V0H61.8782V3ZM47.1474 3H42.2372V0H47.1474V3ZM32.4167 3H27.5064V0H32.4167V3ZM17.6859 3H12.7756V0H17.6859V3ZM2.95512 3H0.5V0H2.95512V3Z" fill="url(#paint0_linear_314_7)"/>
<defs>
<linearGradient id="paint0_linear_314_7" x1="187" y1="2.99944" x2="-4.50001" y2="3.49958" gradientUnits="userSpaceOnUse">
<stop stop-color="#9672FF"/>
<stop offset="1" stop-color="#4DDFFD"/>
</linearGradient>
</defs>
</svg>
