<svg width="192" height="3" viewBox="0 0 192 3" fill="none" xmlns="http://www.w3.org/2000/svg">
<path opacity="0.2" d="M2.45513 3C3.28356 3 3.95513 2.32843 3.95513 1.5C3.95513 0.671573 3.28356 0 2.45513 0V3ZM12.2756 0C11.4472 0 10.7756 0.671573 10.7756 1.5C10.7756 2.32843 11.4472 3 12.2756 3V0ZM17.1859 3C18.0143 3 18.6859 2.32843 18.6859 1.5C18.6859 0.671573 18.0143 0 17.1859 0V3ZM27.0064 0C26.178 0 25.5064 0.671573 25.5064 1.5C25.5064 2.32843 26.178 3 27.0064 3V0ZM31.9167 3C32.7451 3 33.4167 2.32843 33.4167 1.5C33.4167 0.671573 32.7451 0 31.9167 0V3ZM41.7372 0C40.9088 0 40.2372 0.671573 40.2372 1.5C40.2372 2.32843 40.9088 3 41.7372 3V0ZM46.6474 3C47.4759 3 48.1474 2.32843 48.1474 1.5C48.1474 0.671573 47.4759 0 46.6474 0V3ZM56.468 0C55.6395 0 54.968 0.671573 54.968 1.5C54.968 2.32843 55.6395 3 56.468 3V0ZM61.3782 3C62.2066 3 62.8782 2.32843 62.8782 1.5C62.8782 0.671573 62.2066 0 61.3782 0V3ZM71.1987 0C70.3703 0 69.6987 0.671573 69.6987 1.5C69.6987 2.32843 70.3703 3 71.1987 3V0ZM76.109 3C76.9374 3 77.609 2.32843 77.609 1.5C77.609 0.671573 76.9374 0 76.109 0V3ZM85.9295 0C85.1011 0 84.4295 0.671573 84.4295 1.5C84.4295 2.32843 85.1011 3 85.9295 3V0ZM90.8397 3C91.6682 3 92.3397 2.32843 92.3397 1.5C92.3397 0.671573 91.6682 0 90.8397 0V3ZM100.66 0C99.8318 0 99.1602 0.671573 99.1602 1.5C99.1602 2.32843 99.8318 3 100.66 3V0ZM105.571 3C106.399 3 107.071 2.32843 107.071 1.5C107.071 0.671573 106.399 0 105.571 0V3ZM115.391 0C114.563 0 113.891 0.671573 113.891 1.5C113.891 2.32843 114.563 3 115.391 3V0ZM120.301 3C121.13 3 121.801 2.32843 121.801 1.5C121.801 0.671573 121.13 0 120.301 0V3ZM130.122 0C129.293 0 128.622 0.671573 128.622 1.5C128.622 2.32843 129.293 3 130.122 3V0ZM135.032 3C135.86 3 136.532 2.32843 136.532 1.5C136.532 0.671573 135.86 0 135.032 0V3ZM144.853 0C144.024 0 143.353 0.671573 143.353 1.5C143.353 2.32843 144.024 3 144.853 3V0ZM149.763 3C150.591 3 151.263 2.32843 151.263 1.5C151.263 0.671573 150.591 0 149.763 0V3ZM159.583 0C158.755 0 158.083 0.671573 158.083 1.5C158.083 2.32843 158.755 3 159.583 3V0ZM164.494 3C165.322 3 165.994 2.32843 165.994 1.5C165.994 0.671573 165.322 0 164.494 0V3ZM174.314 0C173.486 0 172.814 0.671573 172.814 1.5C172.814 2.32843 173.486 3 174.314 3V0ZM179.224 3C180.053 3 180.724 2.32843 180.724 1.5C180.724 0.671573 180.053 0 179.224 0V3ZM189.045 0C188.216 0 187.545 0.671573 187.545 1.5C187.545 2.32843 188.216 3 189.045 3V0ZM0 3H2.45513V0H0V3ZM12.2756 3H17.1859V0H12.2756V3ZM27.0064 3H31.9167V0H27.0064V3ZM41.7372 3H46.6474V0H41.7372V3ZM56.468 3H61.3782V0H56.468V3ZM71.1987 3H76.109V0H71.1987V3ZM85.9295 3H90.8397V0H85.9295V3ZM100.66 3H105.571V0H100.66V3ZM115.391 3H120.301V0H115.391V3ZM130.122 3H135.032V0H130.122V3ZM144.853 3H149.763V0H144.853V3ZM159.583 3H164.494V0H159.583V3ZM174.314 3H179.224V0H174.314V3ZM189.045 3H191.5V0H189.045V3Z" fill="url(#paint0_linear_314_2)"/>
<defs>
<linearGradient id="paint0_linear_314_2" x1="5" y1="2.99944" x2="196.5" y2="3.49958" gradientUnits="userSpaceOnUse">
<stop stop-color="#9672FF"/>
<stop offset="1" stop-color="#4DDFFD"/>
</linearGradient>
</defs>
</svg>
